<svg version="1.2" xmlns="http://www.w3.org/2000/svg" viewBox="0 0 512 512" width="512" height="512">
	<style>
		.s0 { fill: #ffffff } 
	</style>
	<g id="Merged">
		<path id="Shape 2" class="s0" d="m142.56 375.94l-7.95-10.28 61.6-47.4 7.94 10.28zm173.5-110.35l-7.94-10.27 61.6-47.4 7.94 10.28zm46.52 98.56l31.72-18.28 31.7 18.28v36.52l-31.7 18.28-31.72-18.28zm-277.58 0l31.7-18.26 31.72 18.26v36.53l-31.72 18.27-31.7-18.27zm305.97-136.84c-15.58 0-28.19-12.57-28.19-28.12 0-15.57 12.61-28.13 28.19-28.13 15.6 0 28.2 12.56 28.2 28.13 0 15.55-12.6 28.12-28.2 28.12zm-134.44-67.07c-19.19 0-34.7-15.47-34.7-34.62 0-19.14 15.51-34.62 34.7-34.62 19.18 0 34.69 15.48 34.69 34.62 0 19.15-15.51 34.62-34.69 34.62zm0 58.47l63.39 36.52v73.04l-63.39 36.52-63.41-36.52v-73.04zm6.5-60.63v64.91h-13.01v-64.91zm110.88 204.36l-7.95 10.25-63.42-49 7.96-10.27z"/>
	</g>
</svg>