<svg version="1.2" xmlns="http://www.w3.org/2000/svg" viewBox="0 0 512 512" width="512" height="512">
	<style>
		.s0 { fill: #ffffff } 
	</style>
	<g id="Merged">
		<path id="Shape 2" class="s0" d="m123.45 397.86l-9.31-12.04 72.18-55.54 9.3 12.04zm203.29-129.29l-9.31-12.04 72.18-55.53 9.3 12.04zm54.51 115.48l37.17-21.41 37.14 21.41v42.8l-37.14 21.41-37.17-21.41zm-325.24 0l37.15-21.4 37.16 21.4v42.8l-37.16 21.41-37.15-21.41zm358.51-160.34c-18.26 0-33.03-14.73-33.03-32.95 0-18.24 14.77-32.96 33.03-32.96 18.27 0 33.04 14.72 33.04 32.96 0 18.22-14.77 32.95-33.04 32.95zm-157.53-78.58c-22.48 0-40.66-18.13-40.66-40.57 0-22.43 18.18-40.56 40.66-40.56 22.48 0 40.65 18.13 40.65 40.56 0 22.44-18.17 40.57-40.65 40.57zm0 68.51l74.28 42.78v85.59l-74.28 42.79-74.29-42.79v-85.59zm7.61-71.04v76.06h-15.24v-76.06zm129.92 239.45l-9.32 12.02-74.31-57.42 9.33-12.03z"/>
	</g>
</svg>